#define battery_75_width 8
#define battery_75_height 8
static unsigned char battery_75_bits[] = {
   0x3c, 0x7e, 0x66, 0x7e, 0x7e, 0x7e, 0x7e, 0x7e };
