#define battery_quarter_width 8
#define battery_quarter_height 8
static unsigned char battery_quarter_bits[] = {
   0x3c, 0x7e, 0x66, 0x66, 0x66, 0x7e, 0x7e, 0x7e };
