#define battery_ten_width 8
#define battery_ten_height 8
static unsigned char battery_ten_bits[] = {
   0x3c, 0x7e, 0x66, 0x66, 0x66, 0x66, 0x7e, 0x7e };
