#define battery_full_width 8
#define battery_full_height 8
static unsigned char battery_full_bits[] = {
   0x3c, 0x7e, 0x7e, 0x7e, 0x7e, 0x7e, 0x7e, 0x7e };
