#define battery_half_width 8
#define battery_half_height 8
static unsigned char battery_half_bits[] = {
   0x3c, 0x7e, 0x66, 0x66, 0x7e, 0x7e, 0x7e, 0x7e };
