#define clock_width 8
#define clock_height 8
static unsigned char clock_bits[] = {
   0x3c, 0x6e, 0xef, 0xf7, 0xc7, 0xff, 0x7e, 0x3c };
