#define media_width 12
#define media_height 12
static unsigned char media_bits[] = {
   0x00, 0x00, 0x00, 0x00, 0x10, 0x00, 0x30, 0x00, 0x70, 0x00, 0xf0, 0x00,
   0xf0, 0x00, 0x70, 0x00, 0x30, 0x00, 0x10, 0x00, 0x00, 0x00, 0x00, 0x00 };
