#define misc_width 12
#define misc_height 12
static unsigned char misc_bits[] = {
   0x00, 0x00, 0x00, 0x00, 0xfc, 0x03, 0x04, 0x02, 0x84, 0x02, 0x04, 0x02,
   0x74, 0x02, 0xfc, 0x02, 0xfc, 0x03, 0xfc, 0x03, 0x00, 0x00, 0x00, 0x00 };
