#define pac_width 8
#define pac_height 8
static unsigned char pac_bits[] = {
   0x18, 0x3c, 0x7e, 0x18, 0x18, 0xdb, 0xc3, 0xff };
