#define term_width 12
#define term_height 12
static unsigned char term_bits[] = {
   0x00, 0x00, 0x00, 0x00, 0x00, 0x00, 0x00, 0x00, 0x00, 0x00, 0x0c, 0x00,
   0x18, 0x00, 0x30, 0x00, 0x98, 0x03, 0x8c, 0x03, 0x00, 0x00, 0x00, 0x00 };
