#define vol_width 14
#define vol_height 9
static unsigned char vol_bits[] = {
   0x10, 0x08, 0x18, 0x12, 0x9c, 0x14, 0x3f, 0x15, 0x3f, 0x15, 0x3f, 0x15,
   0x9c, 0x14, 0x18, 0x12, 0x10, 0x08 };
