#define www_width 12
#define www_height 12
static unsigned char www_bits[] = {
   0x00, 0x00, 0x00, 0x00, 0xf0, 0x00, 0x98, 0x01, 0x34, 0x02, 0x74, 0x03,
   0x64, 0x02, 0x24, 0x02, 0x48, 0x01, 0xf0, 0x00, 0x00, 0x00, 0x00, 0x00 };
